<svg xmlns="http://www.w3.org/2000/svg" viewBox="0 0 3694.03 669.94"><defs><style>.cls-1{fill:#fff;}</style></defs><title>1001 media logo white</title><g id="Layer_2" data-name="Layer 2"><g id="Layer_1-2" data-name="Layer 1"><path class="cls-1" d="M1264.24,669.78a184.24,184.24,0,0,1-113.9-45.8q-4.24-3.78-8.28-7.81c-14.24-14.22-14.32-34.81-.42-49.13,13.71-14.14,34.75-14.68,49.21-.86,17.89,17.09,38.76,27.87,63.24,31.93,55.32,9.16,111-24.78,126.39-78.7,3.22-11.27,5.88-23.68,9.14-36.35-2.8,1.4-4.58,2.3-6.37,3.18-16.09,7.93-31.66,17.26-48.36,23.56-106.74,40.25-225.76-29-244.32-141.6-17-103.47,53.76-199.64,157.92-213.1,49.67-6.43,94.9,6.05,134.5,37.35a42,42,0,0,0,3.63,2.2c0-5,0-9.13,0-13.29,0-17.54,11.16-30.09,28.53-32.18,17-2,30.63,3.52,36.76,16.41a46,46,0,0,1,4.06,18.86c.33,46.05.25,92.11.16,138.16-.11,54.21-.44,108.42-.52,162.64-.07,51.08-18.2,94.9-54.08,130.86a183,183,0,0,1-126.91,53.8C1271.15,670,1267.69,669.92,1264.24,669.78Zm120.68-332.37c0-63.26-50-113.31-113.09-113.28-62.59,0-113.34,50.28-113.37,112.24,0,63.85,50,114.31,113.3,114.33C1334.83,450.71,1384.92,400.56,1384.92,337.41ZM1556.28,178.9q0-70.8,0-141.59a42.41,42.41,0,0,0-.42-7.31C1552.73,12.06,1536.12-1.34,1519,.11c-19.17,1.61-33.24,17-33.24,36.45q0,221.45,0,442.88c0,21.12,15.34,37.07,35.51,37,19.83-.05,35.06-16.06,35.07-36.89q0-71.52,0-143.06a172.08,172.08,0,0,1,.93-17.58c6.6-63.44,68.7-109.27,131.6-98.1,54.6,9.7,94.89,57.92,94.07,113.14-.71,48.33-.24,96.68-.11,145,.07,25.07,21.46,42.48,44.36,36.43,16-4.22,26.32-18.17,26.34-35.79q.06-74,0-147.95a169.77,169.77,0,0,0-1.49-23.43c-6.6-46.17-27.31-84.95-62.85-115.14-41.39-35.15-89.44-49.33-143.43-42.7-26.53,3.26-50.89,12.63-73.5,26.74-4.81,3-9.76,5.78-15.91,9.4Zm796.41,342.38a107.15,107.15,0,0,0,15.6-1.17c44.56-6.75,81.63-41.69,90.62-85.25,9.48-45.93-10.08-91.84-49.44-116.33-18.56-11.56-38.87-16.65-60.54-16.71-32.5-.09-65,.14-97.49-.09-16.1-.12-28-8-34.29-22.63-6.69-15.4-4.41-30.14,7-42.78,7.91-8.74,18.16-12.17,29.89-12.15q73,.17,146,0c20.62,0,36.49-15.78,36.43-35.68-.07-19.65-16-34.95-36.46-34.95q-74,0-147.95.05a121.33,121.33,0,0,0-15.12,1c-60.46,7.76-104,68.25-92.29,128.15,10.4,53.26,54.84,89.86,109.22,89.9,32.17,0,64.34-.05,96.51.05,14.77,0,26.79,5.86,34.51,18.69s7.88,26.2.83,39.21c-7.23,13.32-19,19.95-34.14,20-57.48.11-115,0-172.45.07-20.29,0-36,15.61-36,35.44s15.74,35.23,36.13,35.24q44.1,0,88.19,0C2295.86,521.33,2324.28,521.39,2352.69,521.28Zm-1399-188.65A154.78,154.78,0,0,0,952,310.69c-7.07-46.15-28.4-84.59-64.32-114.34-41.41-34.29-89.22-48.19-142.56-40.82-37.72,5.21-70.48,21-98.61,47.28-38.21,35.66-59,79.08-60,131.14-1,50.28-.27,100.61-.18,150.91,0,20.43,15.66,36.31,35.32,36.3,19.45,0,35-16.2,35-36.51,0-48.51-.08-97,.1-145.53a109.25,109.25,0,0,1,2.06-22.87c10.38-47.19,39-77.54,85.88-89.3,43.6-10.93,90.32,6.84,116.52,42.5,15.15,20.6,22.48,43.7,22.55,69.1.14,49,0,98,.07,147a35.27,35.27,0,0,0,35.29,35.64c19.28-.09,34.63-15.87,34.65-35.68q0-39.93,0-79.87C953.75,381.31,953.88,357,953.68,332.63Zm966.34,58c.2,21.06,4.92,41.23,15.08,59.72,35.14,63.88,92.85,78,151.07,71.68,17.08-1.85,29.7-19.91,28.11-37-1.7-18.39-16.46-32.39-34.32-32.5-8.16,0-16.33.09-24.49,0-37.07-.52-64.89-28.67-64.9-65.63q0-76.9,0-153.81c0-7.4,0-7.41,7.43-7.41,26.94,0,53.89.17,80.83-.05,24.62-.2,41.54-23.63,33.81-46.38-5.06-14.89-18.8-24.28-36-24.34q-40.41-.12-80.82,0c-4,0-5.36-1.22-5.32-5.31.18-19.1.1-38.2,0-57.31A37.76,37.76,0,0,0,1990,85c-3.58-17.69-19.87-30.56-36.58-29-19.29,1.78-33.27,16.67-33.39,35.8s-.15,38.21.06,57.31c0,4.53-1.49,5.91-5.93,5.84-13.87-.22-27.75-.18-41.63,0a54.89,54.89,0,0,0-12.6,1.42c-17.18,4.34-28.19,20.65-26.31,38.52,1.75,16.66,16.72,30.34,34.13,30.67q23,.44,46,0c5-.1,6.34,1.55,6.3,6.42-.21,26.78-.1,53.56-.1,80.34C1920,338.38,1919.78,364.5,1920,390.63ZM988.89,485.36c0,19.62,15.7,35.72,34.74,35.84a35.39,35.39,0,0,0,35.69-35.37q.12-148.69,0-297.39c0-12.5-5.86-22.36-16.26-29.12-11.34-7.38-23.45-8-35.32-1.47C995.62,164.47,989,175,988.93,189c-.14,49.48,0,99,0,148.45Q988.88,411.38,988.89,485.36Zm76.46-426.67c0-23.38-17.86-41.25-41.25-41.24s-41.32,18-41.3,41.26,18,41.3,41.32,41.3S1065.35,82.05,1065.35,58.69Z"/><path class="cls-1" d="M508.48,171.62a20.89,20.89,0,0,1,20.87,20.87V481.54a20.89,20.89,0,0,1-20.87,20.87h-470a20.89,20.89,0,0,1-20.87-20.87v-289a20.89,20.89,0,0,1,20.87-20.87h470m0-17.64h-470A38.51,38.51,0,0,0,0,192.49V481.54a38.51,38.51,0,0,0,38.51,38.51h470A38.51,38.51,0,0,0,547,481.54v-289A38.51,38.51,0,0,0,508.48,154Z"/><path class="cls-1" d="M90.35,252.62c-.59,0-1.15,0-1.65,0H77.88c-.46,0-1,0-1.52,0-3.7-.15-9.29-.38-13.14,3.32a10.4,10.4,0,0,0-3.14,7.58,11,11,0,0,0,10.86,11.14H84.78V411.42a10.86,10.86,0,1,0,21.71,0V263.52a10.39,10.39,0,0,0-3.14-7.61C99.55,252.25,94.23,252.46,90.35,252.62Z"/><path class="cls-1" d="M201.08,252.66a73.11,73.11,0,0,0-72.47,72.46v24.7a72.47,72.47,0,0,0,144.93,0v-24.7a73.11,73.11,0,0,0-72.46-72.46ZM239,383.36h-.21l-2.14,2.19a49.18,49.18,0,0,1-35.59,14.73,50.77,50.77,0,0,1-50.47-50.46v-24.7a50.77,50.77,0,0,1,50.47-50.46,49.15,49.15,0,0,1,35.59,14.74l2.14,2.19H239a50.13,50.13,0,0,1,12.52,33.53v24.7A50.16,50.16,0,0,1,239,383.36Z"/><path class="cls-1" d="M364.23,252.66a73.11,73.11,0,0,0-72.46,72.46v24.7a72.46,72.46,0,0,0,144.92,0v-24.7a73.11,73.11,0,0,0-72.46-72.46Zm37.94,130.7H402l-2.13,2.19a49.22,49.22,0,0,1-35.6,14.73,50.77,50.77,0,0,1-50.46-50.46v-24.7a50.77,50.77,0,0,1,50.46-50.46,49.19,49.19,0,0,1,35.6,14.74l2.13,2.19h.21a50.09,50.09,0,0,1,12.53,33.53v24.7A50.12,50.12,0,0,1,402.17,383.36Z"/><path class="cls-1" d="M483.77,255.91c-3.8-3.66-9.12-3.45-13-3.29-.59,0-1.15,0-1.65,0H458.29c-.45,0-1,0-1.51,0-3.7-.15-9.29-.38-13.14,3.32a10.36,10.36,0,0,0-3.14,7.58,11,11,0,0,0,10.86,11.14h13.83V411.42a10.86,10.86,0,1,0,21.72,0V263.52A10.39,10.39,0,0,0,483.77,255.91Z"/><rect class="cls-1" x="2584.98" y="3.41" width="13.57" height="663.12" rx="6.06" ry="6.06"/><path class="cls-1" d="M2922.51,276a82.25,82.25,0,0,0-58.9,24.66,82.11,82.11,0,0,0-95.71-15.83c-12.52,6.71-26.53,15.12-37.18,36.81a82,82,0,0,0-8.46,36.81v82.46a23.56,23.56,0,0,0,47.12,0V358.42a35.34,35.34,0,1,1,70.67,0v82.46a23.56,23.56,0,0,0,47.12,0V358.42a35.34,35.34,0,1,1,70.67,0v82.46a23.56,23.56,0,0,0,47.12,0V358.42A82.32,82.32,0,0,0,2922.51,276Z"/><path class="cls-1" d="M3113.91,276a94.24,94.24,0,0,0,0,188.47h23.56a23.56,23.56,0,1,0,0-47.12h-23.56a46.29,46.29,0,0,1-40.86-23.56h111.54a23.73,23.73,0,0,0,23.56-23.56A94.41,94.41,0,0,0,3113.91,276Zm-40.86,70.67a47.21,47.21,0,0,1,81.72,0Z"/><path class="cls-1" d="M3384.83,205.29a23.72,23.72,0,0,0-23.55,23.56v60a94.14,94.14,0,1,0-47.12,175.59,90.2,90.2,0,0,0,46.38-12.52c.92-.56,1.82-1.12,2.71-1.7a23.53,23.53,0,0,0,45.14-9.34v-212A23.72,23.72,0,0,0,3384.83,205.29Zm-70.67,212a47.12,47.12,0,1,1,47.12-47.12A47,47,0,0,1,3314.16,417.32Z"/><path class="cls-1" d="M3461.4,211.18a26.51,26.51,0,1,0,26.5,26.5A26.39,26.39,0,0,0,3461.4,211.18Z"/><path class="cls-1" d="M3461.4,276a23.72,23.72,0,0,0-23.56,23.56V440.88a23.56,23.56,0,0,0,47.12,0V299.53A23.72,23.72,0,0,0,3461.4,276Z"/><path class="cls-1" d="M3670.48,276A23.72,23.72,0,0,0,3649,289.9a94.21,94.21,0,1,0-49.22,174.54,90.2,90.2,0,0,0,46.38-12.52c.92-.52,1.83-1.07,2.74-1.64a23.53,23.53,0,0,0,45.11-9.4V299.53A23.72,23.72,0,0,0,3670.48,276ZM3599.8,417.32a47.12,47.12,0,1,1,47.12-47.12A47,47,0,0,1,3599.8,417.32Z"/></g></g></svg>